<?xml version="1.0" standalone="no"?>
<!DOCTYPE svg PUBLIC "-//W3C//DTD SVG 20010904//EN"
 "http://www.w3.org/TR/2001/REC-SVG-20010904/DTD/svg10.dtd">
<svg version="1.0" xmlns="http://www.w3.org/2000/svg"
 width="336.000000pt" height="336.000000pt" viewBox="0 0 336.000000 336.000000"
 preserveAspectRatio="xMidYMid meet">
<metadata>
Created by potrace 1.14, written by Peter Selinger 2001-2017
</metadata>
<g transform="translate(0.000000,336.000000) scale(0.100000,-0.100000)"
fill="#000000" stroke="none">
<path d="M684 2877 c-31 -28 -37 -41 -41 -83 -3 -44 6 -71 85 -259 49 -115 88
-211 87 -213 -1 -1 -26 3 -55 9 -114 24 -280 -8 -383 -73 -113 -72 -195 -193
-222 -328 -8 -37 -9 -161 -1 -195 57 -272 256 -430 531 -422 184 6 316 82 425
245 14 21 24 -1 204 -435 234 -569 236 -574 255 -597 26 -30 69 -47 112 -44
67 4 100 43 159 188 28 69 57 139 64 155 8 17 80 191 162 388 143 344 149 358
164 335 30 -47 106 -122 155 -153 81 -52 167 -77 275 -81 158 -5 244 26 344
127 32 32 59 59 60 59 1 0 0 -38 -2 -85 l-3 -85 69 0 68 0 0 490 0 491 -65 -3
-66 -3 0 -81 0 -82 -63 64 c-70 71 -138 108 -228 125 -58 11 -192 7 -227 -6
-9 -4 -17 -5 -17 -1 0 3 38 98 85 210 46 113 87 218 90 235 7 43 -18 97 -57
121 -64 39 -159 16 -191 -47 -15 -29 -135 -315 -377 -898 -77 -187 -155 -375
-173 -417 l-32 -78 -168 0 c-156 0 -168 1 -163 18 4 15 11 48 32 169 3 16 11
60 19 98 7 39 23 122 34 185 22 123 25 137 41 215 5 28 12 66 15 85 4 28 33
179 61 325 2 11 8 41 12 68 l9 47 -68 0 c-59 0 -69 -3 -70 -17 0 -10 -2 -25
-4 -33 -5 -18 -17 -87 -89 -475 -100 -541 -105 -567 -111 -573 -3 -3 -5 0 -5
7 0 7 -8 31 -19 54 -10 23 -56 132 -101 242 -46 110 -144 349 -220 530 -75
182 -147 356 -160 387 -38 93 -80 128 -155 128 -37 0 -52 -6 -81 -33z m92
-677 c103 -33 106 -37 188 -234 72 -174 74 -183 65 -230 -26 -139 -128 -255
-257 -291 -44 -13 -155 -12 -203 0 -167 44 -268 165 -285 339 -19 200 97 371
286 421 55 15 152 12 206 -5z m2035 -6 c150 -59 239 -181 247 -341 15 -280
-222 -477 -484 -403 -33 10 -79 29 -101 43 -52 33 -121 111 -144 164 -39 90
-38 97 47 302 72 176 80 191 114 210 88 49 230 60 321 25z m-997 -886 c-3 -13
-14 -41 -24 -63 -9 -22 -39 -93 -66 -158 l-49 -119 -19 44 c-11 24 -45 105
-77 181 l-57 137 150 0 149 0 -7 -22z"/>
</g>
</svg>
